<?xml version="1.0" encoding="UTF-8"?>
<svg id="Capa_1" data-name="Capa 1" xmlns="http://www.w3.org/2000/svg" viewBox="0 0 479.62 83.99">
  <defs>
    <style>
      .cls-1 {
        fill: #fff;
      }
    </style>
  </defs>
  <polygon class="cls-1" points="288.47 .01 365.58 .01 359.36 21.33 317.19 21.32 314.63 30.01 356.83 30.01 350.62 51.3 308.42 51.3 305.89 60.04 348.09 60.04 342.43 79.48 265.32 79.48 288.47 .01"/>
  <polygon class="cls-1" points="201.69 .01 236.71 .01 219.12 60.04 261.29 60.04 255.64 79.48 178.53 79.48 201.69 .01"/>
  <polygon class="cls-1" points="377.15 .01 420.74 .01 429.03 17.53 450.04 .01 479.62 .01 437.2 35.04 458.07 79.47 414.14 79.48 405.69 61.2 383.5 79.48 353.99 79.48 397.34 43.74 377.15 .01"/>
  <path class="cls-1" d="M114.05,6.53C116.31-.62,120.98.01,122.55.01h68.77l-5.8,19.74h-41.21l-2.97,10.25h41.24l-5.8,19.73h-41.23l-2.95,10.3s-2.6,8.15-3.22,10.5c-.62,2.33-4.76,10.11-14.9,10.11s-19.03.97-19.03-7.35c0-3.3,2.53-11.69,2.53-11.69l13.62-46.75s.23-1.25,2.46-8.32"/>
  <path class="cls-1" d="M2.32,68.16s5.34,15.83,25.6,15.83c14.97,0,19.21-14.14,38.19-14.14,10.7,0,17.41,6.84,17.41,6.84,0,0-7.35-12.92-25-12.92-16.41,0-19.86,13.02-37.72,13.02-11.68,0-18.48-8.63-18.48-8.63"/>
  <path class="cls-1" d="M63.78,40.05c-23.03,0-37.93,15.6-37.93,15.6,0,0,7.92-17.72,7.92-36.86,0-8.62-4.68-15.16-9.72-15.16-6.99,0-9.2,6.95-9.68,7.37-.45.43-5.98,4.71-5.98,5.98,0,.5.05.89.55.89.71,0,6.72-4.63,12.2-4.63,4.01,0,6.89,2.53,6.89,6.17,0,9.45-10.42,25.6-18.63,35.63-8.21,10.03-7.09,13.12-7.09,13.12-1.33-.51-2.3-1.8-2.3-3.31v-12.14s-.03-45.27-.03-45.27C0,3.49,3.19.31,7.11.31h69.17c3.92,0,7.1,3.18,7.1,7.12v35.54s-6.4-2.93-19.59-2.93"/>
</svg>